<svg id="Isolation_Mode" data-name="Isolation Mode" xmlns="http://www.w3.org/2000/svg" viewBox="0 0 262.12 204.43"><defs><style>.cls-1,.cls-3{fill:#f7a01e;}.cls-2{fill:#e91e25;}.cls-3{opacity:0.5;isolation:isolate;}.cls-4{fill:#010101;}</style></defs><title>mastercard</title><path class="cls-1" d="M739.7,312.41c44.15,0,79.93,36.37,79.93,81.24s-35.78,81.24-79.93,81.24-79.94-36.38-79.94-81.24S695.55,312.41,739.7,312.41Z" transform="translate(-558.28 -312.4)"/><path class="cls-2" d="M638.22,312.4c44.15,0,79.94,36.38,79.94,81.25s-35.79,81.24-79.94,81.24-79.94-36.37-79.94-81.24S594.06,312.4,638.22,312.4Z" transform="translate(-558.28 -312.4)"/><path class="cls-3" d="M740.45,312.4c44.15,0,79.94,36.38,79.94,81.25s-35.79,81.24-79.94,81.24-79.94-36.37-79.94-81.24S696.3,312.4,740.45,312.4Z" transform="translate(-558.28 -312.4)"/><path class="cls-4" d="M606.07,516.37V502.8c0-5.21-3.12-8.59-8.46-8.59a8.7,8.7,0,0,0-7.56,3.84,7.76,7.76,0,0,0-7.13-3.84,7.15,7.15,0,0,0-6.23,3.16v-2.71H572v21.71h4.67v-12c0-3.85,2-5.66,5.12-5.66s4.68,2,4.68,5.66v12h4.67v-12c0-3.85,2.23-5.66,5.12-5.66,3.12,0,4.67,2,4.67,5.66v12Z" transform="translate(-558.28 -312.4)"/><path class="cls-4" d="M675.26,494.66H667.7v-6.55H663v6.55H658.8V499H663v10c0,5,2,7.91,7.34,7.91a12.31,12.31,0,0,0,5.78-1.58l-1.33-4.07a7.26,7.26,0,0,1-4,1.13c-2.23,0-3.12-1.36-3.12-3.62V499h7.57v-4.3Z" transform="translate(-558.28 -312.4)"/><path class="cls-4" d="M714.86,494.21a6.29,6.29,0,0,0-5.57,3.16v-2.71h-4.67v21.71h4.67V504.16c0-3.62,1.56-5.66,4.45-5.66a12.61,12.61,0,0,1,2.89.46l1.34-4.52a14.18,14.18,0,0,0-3.11-.23Z" transform="translate(-558.28 -312.4)"/><path class="cls-4" d="M655,496.47a15,15,0,0,0-8.67-2.26c-5.34,0-8.9,2.71-8.9,7,0,3.61,2.67,5.65,7.33,6.33l2.23.23c2.45.44,3.79,1.13,3.79,2.26,0,1.57-1.78,2.71-4.9,2.71a12.17,12.17,0,0,1-7.12-2.27l-2.23,3.63a15.58,15.58,0,0,0,9.14,2.71c6.22,0,9.77-3,9.77-7,0-3.85-2.88-5.88-7.34-6.56l-2.22-.23c-2-.22-3.56-.67-3.56-2,0-1.59,1.56-2.5,4-2.5a15.66,15.66,0,0,1,6.67,1.82l2-3.85Z" transform="translate(-558.28 -312.4)"/><path class="cls-4" d="M779.15,494.21a6.26,6.26,0,0,0-5.56,3.16v-2.71h-4.66v21.71h4.66V504.16c0-3.62,1.55-5.66,4.45-5.66a12.7,12.7,0,0,1,2.89.46l1.33-4.52a14.13,14.13,0,0,0-3.11-.23Z" transform="translate(-558.28 -312.4)"/><path class="cls-4" d="M719.53,505.51c0,6.56,4.45,11.31,11.35,11.31a11,11,0,0,0,7.56-2.49l-2.23-3.85a8.81,8.81,0,0,1-5.56,2c-3.78,0-6.45-2.71-6.45-7a6.63,6.63,0,0,1,6.45-7,8.89,8.89,0,0,1,5.56,2l2.23-3.84a11,11,0,0,0-7.56-2.49c-6.9,0-11.35,4.75-11.35,11.3Z" transform="translate(-558.28 -312.4)"/><path class="cls-4" d="M758,494.66v2.71a8,8,0,0,0-6.67-3.16c-6,0-10.68,4.75-10.68,11.3s4.68,11.31,10.68,11.31c3.11,0,5.34-1.13,6.67-3.17v2.72h4.68V494.66Zm-6,17.86c-4-.22-6.45-3.16-6.45-7s2.44-7,6.45-7c3.78,0,6.45,2.94,6.45,7C758.46,509.36,755.79,512.52,752,512.52Z" transform="translate(-558.28 -312.4)"/><path class="cls-4" d="M699.51,505.75c.22-7-3.79-11.54-9.8-11.54-6.22,0-10.68,4.52-10.68,11.3s4.46,11.31,10.91,11.31a13.44,13.44,0,0,0,8.68-2.94l-2.23-3.4a10.47,10.47,0,0,1-6.23,2.28c-2.89,0-5.78-1.36-6.45-5.21h15.8Zm-15.58-2.27c.45-2.94,2.45-5.2,5.78-5.2,2.9,0,4.9,1.81,5.35,5.2Z" transform="translate(-558.28 -312.4)"/><path class="cls-4" d="M801,486.07v11.31a8,8,0,0,0-6.67-3.17c-6,0-10.68,4.75-10.68,11.31s4.68,11.31,10.68,11.31c3.11,0,5.34-1.13,6.67-3.18v2.73h4.68V486.07Zm-6,26.45c-4-.22-6.45-3.16-6.45-7s2.44-7,6.45-7c3.77,0,6.45,2.94,6.45,7C801.4,509.36,798.72,512.52,795,512.52Z" transform="translate(-558.28 -312.4)"/><path class="cls-4" d="M627.65,494.66v2.71a8,8,0,0,0-6.68-3.16c-6,0-10.68,4.75-10.68,11.3S615,516.82,621,516.82c3.11,0,5.34-1.13,6.68-3.17v2.72h4.67V494.66Zm-6.23,17.86c-4-.22-6.46-3.16-6.46-7s2.45-7,6.46-7c3.78,0,6.45,2.94,6.45,7C627.87,509.36,625.21,512.52,621.42,512.52Z" transform="translate(-558.28 -312.4)"/></svg>